/* XPM */
static char * library_xpm[] = {
"20 20 21 1",
" 	c None",
".	c #000000",
"+	c #E5CD93",
"@	c #F9DD9E",
"#	c #FADE9E",
"$	c #F9DD9D",
"%	c #E6CD92",
"&	c #E8BB76",
"*	c #F7C87D",
"=	c #F7C77C",
"-	c #F7C77B",
";	c #E8BB74",
">	c #D2964C",
",	c #F5AE58",
"'	c #F5AE57",
")	c #F5AD56",
"!	c #F5AD55",
"~	c #F4AC55",
"{	c #D8984B",
"]	c #FFFFFF",
"^	c #040404",
"                    ",
"                    ",
"     ......         ",
"   ..+@##$%..       ",
"  .&**=-----;.      ",
" .>,')!!!!!~~{.     ",
" ..............     ",
" .]]]]]]]]]]]].     ",
" .]]]]]^^^^^]].     ",
" .]]]]]^]]]^]].     ",
" .]]]]]^^^^^]].     ",
" .]]]]]^]]]^]].     ",
" .]]]]]^]]^^]].     ",
" .]]]]^^]^^^]].     ",
" .]]]^^^]^^]]].     ",
" .]]]^^]]]]]]].     ",
" .]]]]]]]]]]]].     ",
" ..............     ",
"                    ",
"                    "};
