/* XPM */
static char *netstream_xpm[] = {
/* columns rows colors chars-per-pixel */
"20 20 11 1",
"  c black",
". c gray25",
"X c #505050",
"o c #00BF00",
"O c #44B134",
"+ c #72C633",
"@ c #5FC745",
"# c gray69",
"$ c #D4D0C8",
"% c gray100",
"& c None",
/* pixels */
"&&&&&&&&&&&&&&&&&&&&",
"&&&&&&&&&&&&&&&&&&&&",
"&&&&&      &&&&&&&&&",
"&&&  +@@@@+  &&&&&&&",
"&& o++++++++o &&&&&&",
"& OooooooooooO &&&&&",
"&              &&&&&",
"& %#%%%#%%#%%% &&&&&",
"& #%%.%%#%%#%% &&&&&",
"& #%%.%%#%%#%% &&&&&",
"& %#%.%#%%%#%% &&&&&",
"& %%%.%%%%#%%% &&&&&",
"& %%%..#.#.#X% &&&&&",
"& #%%........% &&&&&",
"& %##........% &&&&&",
"& %%%.......X% &&&&&",
"& %%%%%%%%%%%% &&&&&",
"&              &&&&&",
"&&&&&&&&&&&&&&&&&&&&",
"&&&&&&&&&&&&&&&&&&&&"
};
