/* XPM */
static char *nowplaying_xpm[] = {
/* columns rows colors chars-per-pixel */
"20 20 24 1",
"  c black",
". c #202020",
"X c gray25",
"o c #D2964C",
"O c #D8984B",
"+ c #F4AC55",
"@ c #F5AD55",
"# c #F5AD56",
"$ c #F5AE57",
"% c #F5AE58",
"& c #E8BB74",
"* c #E8BB76",
"= c #F7C77B",
"- c #F7C77C",
"; c #F7C87D",
": c #909090",
"> c #E5CD93",
", c #E6CD92",
"< c #F9DD9D",
"1 c #F9DD9E",
"2 c #FADE9E",
"3 c #D4D0C8",
"4 c gray100",
"5 c None",
/* pixels */
"55555555555555555555",
"55555555555555555555",
"55555      555555555",
"555  >2222>  5555555",
"55 *;;======* 555555",
"5 o%####+####O 55555",
"5              55555",
"5 44444X444444 55555",
"5 44:44X..4444 55555",
"5 4:44:X  ..44 55555",
"5 4:4:4X     4 55555",
"5 4:4:4X    .4 55555",
"5 4:4:4X    .4 55555",
"5 4:4:4X    .4 55555",
"5 4:44:X  ..44 55555",
"5 44:44X..4444 55555",
"5 44444X444444 55555",
"5              55555",
"55555555555555555555",
"55555555555555555555"
};
