/* XPM */
static char * rating5_xpm[] = {
"32 14 3 1",
" 	c None",
".	c #000000",
"+	c #FFFFFF",
"                                ",
"                                ",
"                                ",
"   ..........................   ",
"   .++++++++++++++++++++++++.   ",
"   .+......................+.   ",
"   .+......................+.   ",
"   .+......................+.   ",
"   .+......................+.   ",
"   .++++++++++++++++++++++++.   ",
"   ..........................   ",
"                                ",
"                                ",
"                                "};
